<?xml version="1.0" encoding="UTF-8" standalone="no"?>
<!-- Created with Inkscape (http://www.inkscape.org/) -->

<svg
   xmlns:dc="http://purl.org/dc/elements/1.1/"
   xmlns:cc="http://creativecommons.org/ns#"
   xmlns:rdf="http://www.w3.org/1999/02/22-rdf-syntax-ns#"
   xmlns:svg="http://www.w3.org/2000/svg"
   xmlns="http://www.w3.org/2000/svg"
   xmlns:sodipodi="http://sodipodi.sourceforge.net/DTD/sodipodi-0.dtd"
   xmlns:inkscape="http://www.inkscape.org/namespaces/inkscape"
   width="2440"
   height="1828.9397"
   id="svg2"
   version="1.1"
   inkscape:version="0.48.4 r9939"
   sodipodi:docname="agile_staffs_brandings.svg">
  <defs
     id="defs4">
    <inkscape:path-effect
       effect="knot"
       id="path-effect3778-4"
       is_visible="true"
       interruption_width="0.2"
       prop_to_stroke_width="true"
       add_stroke_width="true"
       add_other_stroke_width="true"
       switcher_size="15"
       crossing_points_vector="2179.2343 | -1753.54 | 0 | 0 | 0 | 3 | 0.88854931 | 9.321318 | 1 | 1400 | -1156.6667 | 0 | 0 | 1 | 4 | 2.4666667 | 14.533333 | 1 | 620.7662 | -1753.5396 | 0 | 0 | 2 | 5 | 7.678682 | 16.11145 | 1" />
  </defs>
  <sodipodi:namedview
     id="base"
     pagecolor="#ffffff"
     bordercolor="#666666"
     borderopacity="1.0"
     inkscape:pageopacity="0.0"
     inkscape:pageshadow="2"
     inkscape:zoom="0.38"
     inkscape:cx="481.31144"
     inkscape:cy="845.78906"
     inkscape:document-units="px"
     inkscape:current-layer="layer1"
     showgrid="true"
     fit-margin-top="10"
     fit-margin-left="10"
     fit-margin-right="10"
     fit-margin-bottom="10"
     inkscape:window-width="1920"
     inkscape:window-height="1018"
     inkscape:window-x="-8"
     inkscape:window-y="-8"
     inkscape:window-maximized="1"
     showguides="true"
     inkscape:guide-bbox="true">
    <inkscape:grid
       type="xygrid"
       id="grid3006"
       empspacing="5"
       visible="true"
       enabled="true"
       snapvisiblegridlinesonly="true"
       originx="1134.5287px"
       originy="267.99501px" />
    <sodipodi:guide
       orientation="1,0"
       position="14.5287,2327.9951"
       id="guide3841" />
    <sodipodi:guide
       orientation="1,0"
       position="2414.5287,2107.9951"
       id="guide3843" />
  </sodipodi:namedview>
  <metadata
     id="metadata7">
    <rdf:RDF>
      <cc:Work
         rdf:about="">
        <dc:format>image/svg+xml</dc:format>
        <dc:type
           rdf:resource="http://purl.org/dc/dcmitype/StillImage" />
        <dc:title />
      </cc:Work>
    </rdf:RDF>
  </metadata>
  <g
     inkscape:groupmode="layer"
     id="layer2"
     inkscape:label="Rope Underlay"
     style="display:inline"
     sodipodi:insensitive="true"
     transform="translate(70.243,-2436.1978)">
    <path
       style="fill:none;stroke:#000000;stroke-width:120;stroke-linecap:round;stroke-linejoin:round;stroke-miterlimit:4;stroke-opacity:1;stroke-dasharray:none;display:inline"
       d="m 2299.757,2849.9997 c -200,0 -250,0 -425,137.5 l -375,287.5 -750,575 c -65.7114,50.3787 -200,100 -300,100 -50,0 -150,0 -250,-50 -111.7877,-55.8939 -150,-150 -150,-300 0,-83.3333 0,-166.6667 0,-250 0,-300 300,-450 600,-450 l 1000,0 c 300,0 600,150 600,450 0,83.3333 0,166.6667 0,250 0,150 -38.2124,244.1061 -150,300 -100,50 -200,50 -250,50 -100,0 -233.0166,-48.6461 -300,-100 l -750,-575 -375,-287.5 c -175,-137.5 -225,-137.5 -425,-137.5"
       id="path3008"
       inkscape:connector-curvature="0"
       sodipodi:nodetypes="cccccscccscccssccc" />
  </g>
  <g
     inkscape:groupmode="layer"
     id="layer3"
     inkscape:label="Rope"
     style="display:inline"
     sodipodi:insensitive="true"
     transform="translate(70.243,-2436.1978)">
    <g
       style="display:inline"
       transform="translate(-250,5747.6374)"
       id="layer1-9"
       inkscape:label="Layer 1">
      <g
         inkscape:label="Layer 1"
         id="layer1-7"
         transform="matrix(0.94982416,0,0,0.96879688,-55.329718,186.35953)" />
      <path
         sodipodi:nodetypes="cccccscccscccssccc"
         inkscape:connector-curvature="0"
         id="rect3796"
         d="m 2550,-1850 c -112.9184,0 -178.0222,0 -244.8036,24.7461 M 2074.8872,-1674.0802 1750,-1425 1000,-850 c -65.71137,50.37872 -200,100 -300,100 -50,0 -150,0 -250,-50 -111.7877,-55.89385 -150,-150 -150,-300 0,-83.3333 0,-166.6667 0,-250 0,-158.5273 83.76966,-275.1697 207.04305,-349.9273 m 252.76038,-88.9714 C 805.76067,-1796.2996 852.88033,-1800 900,-1800 l 1000,0 c 300,0 600,150 600,450 0,83.3333 0,166.6667 0,250 0,150 -38.2124,244.10618 -150,300 -100,50 -200,50 -250,50 -100,0 -233.0166,-48.64607 -300,-100 l -309.6036,-237.3628 M 1309.6036,-1225.9705 1050,-1425 675,-1712.5 C 500,-1850 450,-1850 250,-1850"
         style="fill:none;stroke:#0b9444;stroke-width:100;stroke-linecap:round;stroke-linejoin:round;stroke-miterlimit:4;stroke-opacity:1"
         inkscape:path-effect="#path-effect3778-4"
         inkscape:original-d="m 2550,-1850 c -200,0 -250,0 -425,137.5 l -375,287.5 -750,575 c -65.71137,50.37872 -200,100 -300,100 -50,0 -150,0 -250,-50 -111.7877,-55.89385 -150,-150 -150,-300 0,-83.3333 0,-166.6667 0,-250 0,-300 300,-450 600,-450 l 1000,0 c 300,0 600,150 600,450 0,83.3333 0,166.6667 0,250 0,150 -38.2124,244.10618 -150,300 -100,50 -200,50 -250,50 -100,0 -233.0166,-48.64607 -300,-100 l -750,-575 -375,-287.5 C 500,-1850 450,-1850 250,-1850"
         transform="translate(0,-1047.6378)" />
    </g>
  </g>
  <g
     inkscape:label="TextLogo"
     inkscape:groupmode="layer"
     id="layer1"
     transform="translate(1134.5287,508.58252)"
     style="display:inline"
     sodipodi:insensitive="true">
    <text
       xml:space="preserve"
       style="font-size:255.14353943px;font-style:normal;font-variant:normal;font-weight:normal;font-stretch:normal;text-align:start;line-height:125%;letter-spacing:0px;word-spacing:0px;writing-mode:lr-tb;text-anchor:start;fill:#0b9444;fill-opacity:1;stroke:#000000;stroke-width:5;stroke-miterlimit:4;stroke-opacity:1;stroke-dasharray:none;font-family:Audiowide;-inkscape-font-specification:Audiowide"
       x="-1287.3102"
       y="-237.55522"
       id="text3837"
       sodipodi:linespacing="125%"
       transform="scale(0.8681157,1.1519202)"><tspan
         sodipodi:role="line"
         id="tspan3839"
         x="-1287.3102"
         y="-237.55522"
         style="stroke-width:5">Agile Staffordshire</tspan></text>
  </g>
  <g
     inkscape:groupmode="layer"
     id="layer4"
     inkscape:label="URL"
     sodipodi:insensitive="true"
     transform="translate(0,343.80192)"
     style="display:inline">
    <flowRoot
       xml:space="preserve"
       id="flowRoot3053"
       style="font-size:144px;font-style:normal;font-variant:normal;font-weight:normal;font-stretch:normal;text-align:center;line-height:125%;letter-spacing:0px;word-spacing:0px;text-anchor:middle;fill:#000000;fill-opacity:1;stroke:none;font-family:Audiowide;-inkscape-font-specification:Audiowide"
       transform="translate(-280,1512)"><flowRegion
         id="flowRegion3055"><rect
           id="rect3057"
           width="2262.4233"
           height="226.72818"
           x="392.10526"
           y="-209.5854"
           style="font-size:144px;font-style:normal;font-variant:normal;font-weight:normal;font-stretch:normal;text-align:center;text-anchor:middle;font-family:Audiowide;-inkscape-font-specification:Audiowide" /></flowRegion><flowPara
         id="flowPara3059">www.agilestaffordshire.org</flowPara></flowRoot>  </g>
</svg>
